{
    "asset" : {
        "generator" : "Khronos glTF Blender I/O v1.3.48",
        "version" : "2.0"
    },
    "scene" : 0,
    "scenes" : [
        {
            "name" : "Scene",
            "nodes" : [
                1
            ]
        }
    ],
    "nodes" : [
        {
            "mesh" : 0,
            "name" : "Cross",
            "scale" : [
                1.7428854703903198,
                1.1422767639160156,
                0.39277297258377075
            ]
        },
        {
            "children" : [
                0
            ],
            "mesh" : 1,
            "name" : "Case",
            "scale" : [
                0.5737611055374146,
                2.626333475112915,
                2.5460000038146973
            ]
        }
    ],
    "animations" : [
        {
            "channels" : [
                {
                    "sampler" : 0,
                    "target" : {
                        "node" : 1,
                        "path" : "rotation"
                    }
                }
            ],
            "name" : "CaseAction",
            "samplers" : [
                {
                    "input" : 8,
                    "interpolation" : "LINEAR",
                    "output" : 9
                }
            ]
        }
    ],
    "materials" : [
        {
            "doubleSided" : true,
            "emissiveFactor" : [
                0,
                0.08001166582107544,
                0.0035845735110342503
            ],
            "name" : "crossmat",
            "pbrMetallicRoughness" : {
                "baseColorFactor" : [
                    0.0034866451751440763,
                    0.39772388339042664,
                    0,
                    1
                ],
                "metallicFactor" : 0,
                "roughnessFactor" : 0.5
            }
        },
        {
            "doubleSided" : true,
            "emissiveFactor" : [
                0,
                0,
                0
            ],
            "name" : "casemat",
            "pbrMetallicRoughness" : {
                "baseColorFactor" : [
                    0.07323560863733292,
                    0.07323560863733292,
                    0.07323560863733292,
                    1
                ],
                "metallicFactor" : 0.32499998807907104,
                "roughnessFactor" : 0.2666666507720947
            }
        }
    ],
    "meshes" : [
        {
            "name" : "Cube.001",
            "primitives" : [
                {
                    "attributes" : {
                        "POSITION" : 0,
                        "NORMAL" : 1,
                        "TEXCOORD_0" : 2
                    },
                    "indices" : 3,
                    "material" : 0
                }
            ]
        },
        {
            "name" : "Cube.003",
            "primitives" : [
                {
                    "attributes" : {
                        "POSITION" : 4,
                        "NORMAL" : 5,
                        "TEXCOORD_0" : 6
                    },
                    "indices" : 7,
                    "material" : 1
                }
            ]
        }
    ],
    "accessors" : [
        {
            "bufferView" : 0,
            "componentType" : 5126,
            "count" : 48,
            "max" : [
                0.07620000094175339,
                0.07620000094175339,
                0.22859999537467957
            ],
            "min" : [
                -0.07620000094175339,
                -0.07620000094175339,
                -0.22859999537467957
            ],
            "type" : "VEC3"
        },
        {
            "bufferView" : 1,
            "componentType" : 5126,
            "count" : 48,
            "type" : "VEC3"
        },
        {
            "bufferView" : 2,
            "componentType" : 5126,
            "count" : 48,
            "type" : "VEC2"
        },
        {
            "bufferView" : 3,
            "componentType" : 5123,
            "count" : 72,
            "type" : "SCALAR"
        },
        {
            "bufferView" : 4,
            "componentType" : 5126,
            "count" : 96,
            "max" : [
                0.07620000094175339,
                0.07620000094175339,
                0.07620000094175339
            ],
            "min" : [
                -0.07620000094175339,
                -0.07620000094175339,
                -0.07620000094175339
            ],
            "type" : "VEC3"
        },
        {
            "bufferView" : 5,
            "componentType" : 5126,
            "count" : 96,
            "type" : "VEC3"
        },
        {
            "bufferView" : 6,
            "componentType" : 5126,
            "count" : 96,
            "type" : "VEC2"
        },
        {
            "bufferView" : 7,
            "componentType" : 5123,
            "count" : 180,
            "type" : "SCALAR"
        },
        {
            "bufferView" : 8,
            "componentType" : 5126,
            "count" : 87,
            "max" : [
                3.5833333333333335
            ],
            "min" : [
                0
            ],
            "type" : "SCALAR"
        },
        {
            "bufferView" : 9,
            "componentType" : 5126,
            "count" : 87,
            "type" : "VEC4"
        }
    ],
    "bufferViews" : [
        {
            "buffer" : 0,
            "byteLength" : 576,
            "byteOffset" : 0
        },
        {
            "buffer" : 0,
            "byteLength" : 576,
            "byteOffset" : 576
        },
        {
            "buffer" : 0,
            "byteLength" : 384,
            "byteOffset" : 1152
        },
        {
            "buffer" : 0,
            "byteLength" : 144,
            "byteOffset" : 1536
        },
        {
            "buffer" : 0,
            "byteLength" : 1152,
            "byteOffset" : 1680
        },
        {
            "buffer" : 0,
            "byteLength" : 1152,
            "byteOffset" : 2832
        },
        {
            "buffer" : 0,
            "byteLength" : 768,
            "byteOffset" : 3984
        },
        {
            "buffer" : 0,
            "byteLength" : 360,
            "byteOffset" : 4752
        },
        {
            "buffer" : 0,
            "byteLength" : 348,
            "byteOffset" : 5112
        },
        {
            "buffer" : 0,
            "byteLength" : 1392,
            "byteOffset" : 5460
        }
    ],
    "buffers" : [
        {
            "byteLength" : 6852,
            "uri" : "data:application/octet-stream;base64,"
        }
    ]
}
